<svg width="1920" height="1080" viewBox="0 0 1920 1080" fill="none" xmlns="http://www.w3.org/2000/svg">
    <g clip-path="url(#clip0_40_77379)">
        <rect width="1920" height="1080" fill="#343A40"/>
        <path d="M1961.49 907.105C1961.49 947.242 1929.24 979.778 1889.45 979.778C1849.66 979.778 1817.4 947.242 1817.4 907.105" stroke="#31A08A" stroke-width="13" stroke-linecap="round" stroke-linejoin="round"/>
        <path d="M445.096 392.133V472.681C445.096 570.794 524.54 650.328 622.54 650.328H693.216C752.183 650.328 799.986 698.186 799.986 757.22M799.986 865.176H575.156C518.487 865.176 472.546 910.873 472.546 967.243C472.546 1023.61 518.487 1069.31 575.156 1069.31H667.951L799.986 865.176Z" stroke="#487D64" stroke-width="13" stroke-linecap="round" stroke-linejoin="round"/>
        <path d="M693.483 197.921C721.163 197.921 743.602 175.482 743.602 147.803C743.602 120.123 721.163 97.6836 693.483 97.6836C665.803 97.6836 643.364 120.123 643.364 147.803C643.364 175.482 665.803 197.921 693.483 197.921Z" stroke="#31A08A" stroke-width="13" stroke-linecap="round" stroke-linejoin="round"/>
        <path d="M692.231 751.734H560.923C518.907 751.734 480.027 766.271 448.349 790.948M560.456 1175.24C454.007 1175.24 367.711 1080.72 367.711 964.128C367.711 923.643 378.116 885.819 396.157 853.689L560.456 1175.24Z" stroke="#487D64" stroke-width="13" stroke-linecap="round" stroke-linejoin="round"/>
        <path d="M368.337 174.117C328.547 174.117 296.291 206.373 296.291 246.163C296.291 285.954 328.547 318.209 368.337 318.209C408.127 318.209 440.383 285.954 440.383 246.163V174.117" stroke="#31A08A" stroke-width="13" stroke-linecap="round" stroke-linejoin="round"/>
        <path d="M46.3228 741.19C0.304877 741.19 -37 704.283 -37 658.755C-37 613.227 0.304877 576.32 46.3228 576.32C92.341 576.32 129.646 613.227 129.646 658.755V910.864" stroke="#31A08A" stroke-width="13" stroke-linecap="round" stroke-linejoin="round"/>
        <path d="M1788.57 745.47C1788.57 787.682 1822.24 821.902 1863.76 821.902C1905.29 821.902 1938.94 787.682 1938.94 745.47C1938.94 703.259 1905.29 669.039 1863.76 669.039H1611.91" stroke="#539ECC" stroke-width="13" stroke-linecap="round" stroke-linejoin="round"/>
        <path d="M1321.85 360.282C1361.64 360.282 1393.9 392.375 1393.9 431.966C1393.9 471.556 1361.64 503.65 1321.85 503.65C1282.06 503.65 1249.8 471.556 1249.8 431.966V164.094" stroke="#487D64" stroke-width="13" stroke-linecap="round" stroke-linejoin="round"/>
        <path d="M35.046 367.959C-4.74396 367.959 -37 399.736 -37 438.935C-37 478.135 -4.74396 509.911 35.046 509.911C74.8359 509.911 107.092 478.135 107.092 438.935V149.055" stroke="#487D64" stroke-width="13" stroke-linecap="round" stroke-linejoin="round"/>
        <path d="M819.663 149.056C819.663 77.781 762.807 20 692.672 20C622.537 20 565.681 77.781 565.681 149.056C565.681 220.332 622.537 278.113 692.672 278.113H1025.52" stroke="#487D64" stroke-width="13" stroke-linecap="round" stroke-linejoin="round"/>
        <path d="M1834.5 566.296C1904.64 566.296 1961.49 508.515 1961.49 437.24C1961.49 365.965 1904.64 308.184 1834.5 308.184H1501.65" stroke="#31A08A" stroke-width="13" stroke-linecap="round" stroke-linejoin="round"/>







        <path fill-rule="evenodd" clip-rule="evenodd" d="M290.653 746.724C249.479 746.724 216.101 713.402 216.101 672.297V460.294C216.101 419.189 249.479 385.867 290.653 385.867C331.826 385.867 365.204 419.189 365.204 460.294V672.297C365.204 713.402 331.826 746.724 290.653 746.724Z" stroke="#FFFFFF" stroke-width="13" stroke-linecap="round" stroke-linejoin="round"/>
        <path d="M994.197 652.126V540.192C994.197 508.246 1020.28 482.348 1052.46 482.348C1084.64 482.348 1110.72 508.246 1110.72 540.192V764.059C1110.72 796.006 1084.64 821.904 1052.46 821.904C1020.28 821.904 994.197 796.006 994.197 764.059V737.015" stroke="#FFFFFF" stroke-width="13" stroke-linecap="round" stroke-linejoin="round"/>
        <path d="M46.636 848.215H40.6082C-2.25354 848.215 -37 882.995 -37 925.899C-37 968.804 -2.25369 1003.58 40.6082 1003.58H219.936C262.798 1003.58 297.544 968.804 297.544 925.899C297.544 882.995 262.798 848.215 219.936 848.215H213.908" stroke="#487D64" stroke-width="13" stroke-linecap="round" stroke-linejoin="round"/>
        <path d="M897.719 482.348V772.582C897.719 859.334 968.682 929.659 1056.22 929.659C1143.76 929.659 1214.72 859.334 1214.72 772.582V704.01" stroke="#31A08A" stroke-width="13" stroke-linecap="round" stroke-linejoin="round"/>
        <path d="M579.463 973.516H839.833C938.926 973.516 1019.26 1054.3 1019.26 1153.94" stroke="#31A08A" stroke-width="13" stroke-linecap="round" stroke-linejoin="round"/>
        <path d="M690.977 533.716H629.348C587.957 533.716 554.403 500.057 554.403 458.538C554.403 417.018 587.957 383.359 629.348 383.359H752.607C793.998 383.359 827.552 417.018 827.552 458.538V465.217C827.552 503.048 796.979 533.716 759.265 533.716" stroke="#539ECC" stroke-width="13" stroke-linecap="round" stroke-linejoin="round"/>
        <path d="M1321.85 246.79H1392.24C1439.52 246.79 1477.84 210.606 1477.84 165.973C1477.84 121.34 1439.52 85.1562 1392.24 85.1562H1251.46C1204.18 85.1562 1165.85 121.34 1165.85 165.973" stroke="#31A08A" stroke-width="13" stroke-linecap="round" stroke-linejoin="round"/>
        <path d="M1700.88 1086.89V773.039" stroke="#FFFFFF" stroke-width="13" stroke-linecap="round" stroke-linejoin="round"/>
        <path d="M892.706 383.365H1015.96C1098.75 383.365 1165.85 316.047 1165.85 233.008" stroke="#539ECC" stroke-width="13" stroke-linecap="round" stroke-linejoin="round"/>
        <path d="M1611.91 775.543V842.897C1611.91 910.881 1556.78 965.995 1488.76 965.995H1392.64" stroke="#539ECC" stroke-width="13" stroke-linecap="round" stroke-linejoin="round"/>
        <path d="M1844.97 439.746H1739.71C1663.59 439.746 1601.89 502.015 1601.89 578.826" stroke="#487D64" stroke-width="13" stroke-linecap="round" stroke-linejoin="round"/>
        <path d="M12.4922 63.8516C12.4922 75.5206 12.4922 222.412 12.4922 294.399" stroke="#539ECC" stroke-width="13" stroke-linecap="round" stroke-linejoin="round"/>
        <path d="M1320.6 593.859C1320.6 603.498 1320.6 724.844 1320.6 784.311" stroke="#31A08A" stroke-width="13" stroke-linecap="round" stroke-linejoin="round"/>
        <path d="M1152.07 1023.63H1185.62C1254.95 1023.63 1311.15 967.503 1311.15 898.26M1501.65 390.883V569.219C1501.65 597.28 1478.73 620.009 1450.45 620.009C1422.17 620.009 1399.25 642.757 1399.25 670.819V681.357C1399.25 709.418 1422.17 732.167 1450.45 732.167C1478.73 732.167 1501.65 754.915 1501.65 782.977V794.644C1501.65 829.149 1473.46 857.121 1438.69 857.121H1406.07H1358.28L1501.65 390.883Z" stroke="#487D64" stroke-width="13" stroke-linecap="round" stroke-linejoin="round"/>
        <path d="M1812.39 143.946V169.359C1812.39 205.203 1783.24 234.259 1747.31 234.259C1711.36 234.259 1682.21 205.203 1682.21 169.359V148.309C1682.21 112.738 1653.29 83.9023 1617.62 83.9023C1581.95 83.9023 1553.02 112.738 1553.02 148.309V174.216" stroke="#FFFFFF" stroke-width="13" stroke-linecap="round" stroke-linejoin="round"/>
        <rect width="1920" height="1080" fill="url(#paint0_linear_40_77379)"/>
    </g>
    <defs>
        <linearGradient id="paint0_linear_40_77379" x1="960" y1="0" x2="960" y2="1080" gradientUnits="userSpaceOnUse">
            <stop stop-color="#343A40"/>
            <stop offset="1" stop-color="#343A40" stop-opacity="0"/>
        </linearGradient>
        <clipPath id="clip0_40_77379">
            <rect width="1920" height="1080" fill="white"/>
        </clipPath>
    </defs>
</svg>
